<svg width="75" height="26" viewBox="0 0 75 26" fill="none" xmlns="http://www.w3.org/2000/svg">
<g clip-path="url(#clip0_1_5623)">
<path d="M74.9963 13.042C74.9963 16.3142 75.0077 19.5851 74.9924 22.8572C74.9822 24.9486 73.2606 26.287 71.068 25.9432C69.8469 25.7524 68.7645 24.7328 68.5633 23.565C68.5099 23.2521 68.4843 22.9319 68.4843 22.6154C68.4805 16.2312 68.478 9.84698 68.4831 3.46282C68.4843 1.61811 69.4648 0.40292 71.138 0.1338C73.2454 -0.204082 74.986 1.17708 74.9937 3.2269C75.0064 6.49902 74.9963 9.77115 74.9963 13.042Z" fill="#2662F3"/>
<path fill-rule="evenodd" clip-rule="evenodd" d="M50.3512 23.3159C52.1186 24.9627 54.5137 25.8684 57.0948 25.8684H57.1C62.4416 25.8661 66.6284 21.8399 66.6322 16.7029C66.6348 14.2086 65.6657 11.8991 63.9072 10.2002C62.1348 8.48828 59.7166 7.54457 57.1 7.5434H57.0948C51.7162 7.5434 47.499 11.5398 47.4951 16.6436C47.4926 19.2293 48.5074 21.5992 50.3512 23.3159ZM57.0566 19.5732H57.0553C56.2468 19.5732 55.4942 19.2815 54.9365 18.7492C54.3712 18.211 54.0605 17.4795 54.0617 16.6911C54.0643 15.093 55.4089 13.7936 57.0605 13.7936H57.063C58.7082 13.7948 60.0477 15.0989 60.0477 16.7006C60.049 17.4913 59.7383 18.2217 59.1755 18.7563C58.6203 19.2827 57.8678 19.5732 57.0566 19.5732Z" fill="#2662F3"/>
<path d="M31.6918 17.3561C30.9303 19.349 30.2312 21.1796 29.5309 23.0089C29.4163 23.3076 29.3017 23.6076 29.1718 23.9004C28.6383 25.0978 27.6986 25.8138 26.2851 25.8838C24.9558 25.949 23.8531 25.457 23.2126 24.3782C22.5555 23.2709 22.0334 22.0912 21.4974 20.9246C20.2036 18.109 18.901 15.2956 17.685 12.4516C17.3908 11.7639 17.2495 10.9411 17.3336 10.2108C17.4953 8.81071 18.6412 7.89546 20.0661 7.78877C21.6552 7.66902 23.0279 8.45505 23.5093 9.80183C24.2567 11.8884 24.9762 13.9844 25.7096 16.0746C25.8064 16.352 25.9171 16.6247 26.0814 17.0562C26.6875 15.3206 27.2223 13.7283 27.8029 12.1504C28.1569 11.1877 28.5033 10.2108 28.9961 9.30861C29.5844 8.23098 30.5992 7.69629 31.9451 7.78283C33.2834 7.8682 34.2244 8.50365 34.6663 9.64652C35.5321 11.8872 36.3191 14.154 37.1403 16.4089C37.2078 16.595 37.2829 16.78 37.3964 17.0752C38.2354 14.6851 39.0491 12.4053 39.8348 10.1183C40.2448 8.92337 40.9948 8.06026 42.3712 7.83382C43.5745 7.63464 44.6747 7.88361 45.491 8.78696C46.4446 9.84447 46.4294 11.049 45.8971 12.2512C44.5117 15.3751 43.0881 18.4848 41.676 21.5992C41.3258 22.3722 40.9974 23.1571 40.5924 23.9063C39.7597 25.4452 38.3144 26.1198 36.6272 25.8151C35.3577 25.5863 34.6599 24.7813 34.2358 23.7297C33.4922 21.8826 32.7741 20.026 32.0432 18.1742C31.954 17.9477 31.8522 17.7272 31.6918 17.3561Z" fill="#2662F3"/>
<path d="M11.8325 15.7951C13.5515 17.609 15.1712 19.3103 16.7794 21.0198C18.0222 22.3394 17.9229 24.1674 16.5605 25.2748C15.2056 26.3761 13.1263 26.2018 11.937 24.8207C10.2268 22.8349 8.57022 20.81 6.88942 18.8016C6.78755 18.6795 6.67676 18.5634 6.46666 18.3274C6.42719 18.6144 6.38771 18.7709 6.38644 18.9285C6.38135 20.2693 6.39663 21.6102 6.3788 22.9511C6.35588 24.7306 5.06344 25.9565 3.23747 25.96C1.37966 25.9636 0.0120964 24.7093 0.00827637 22.9427C-0.0031837 16.3073 -0.00190966 9.67053 0.00700373 3.03502C0.00955043 1.23772 1.33637 -0.00354903 3.19673 7.6234e-06C5.01887 0.00356428 6.36862 1.28396 6.37753 3.06348C6.39281 6.15421 6.38263 9.24491 6.38263 12.3357C6.38263 12.5585 6.38263 12.7802 6.38263 13.1252C6.60673 12.9463 6.75189 12.849 6.87286 12.7305C8.15002 11.4761 9.4157 10.2124 10.6992 8.96515C11.5345 8.15305 12.5393 7.66341 13.7794 7.8448C14.9497 8.01551 15.827 8.6154 16.2154 9.67651C16.6254 10.7956 16.4115 11.8615 15.5086 12.7056C14.476 13.6706 13.3631 14.5622 12.2807 15.4821C12.1598 15.5841 12.0159 15.6671 11.8325 15.7951Z" fill="#2662F3"/>
</g>
<defs>
<clipPath id="clip0_1_5623">
<rect width="75" height="26" fill="white"/>
</clipPath>
</defs>
</svg>
